<svg xmlns="http://www.w3.org/2000/svg" xmlns:xlink="http://www.w3.org/1999/xlink" width="204.054pt" height="203.860pt" version="1.1" viewBox="952.671 699.925 204.054 203.860">
  <!--
	Exported with Concepts: Smarter Sketching
	Version: 916 on iOS 14.6
	https://concepts.app/
	-->
  <title>Metapage</title>
  <desc>Drawing exported from Concepts: Smarter Sketching</desc>
  <defs></defs>
  <g id="Fill" opacity="1.000">
    <path id="STROKE_18bf9077-3d08-40d2-bb32-2f1f53137da6" opacity="1.000" fill="#31aee4" stroke="#31aee4" stroke-width="0.500" stroke-opacity="1.000" stroke-linecap="round" stroke-linejoin="round" d="M 1034.493 781.127 Q 1034.493 781.138 1034.493 781.149 Q 1034.468 781.033 1034.437 781.008 Q 1034.406 780.984 1034.364 780.955 Q 1034.321 780.927 1034.141 780.873 Q 1033.961 780.820 1033.934 780.840 Q 1033.906 780.861 1033.919 780.855 Q 1033.931 780.849 1033.942 780.782 Q 1033.954 780.715 1033.553 781.133 Q 1033.151 781.552 1033.000 781.763 Q 1032.848 781.974 1032.764 781.925 Q 1032.679 781.875 1032.094 782.421 Q 1031.509 782.967 1031.232 783.294 Q 1030.956 783.621 1030.753 783.807 Q 1030.551 783.992 1030.574 783.979 Q 1030.598 783.966 1030.604 783.945 Q 1030.609 783.924 1030.438 784.155 Q 1030.266 784.386 1030.165 784.594 Q 1030.064 784.803 1029.997 784.991 Q 1029.930 785.180 1029.932 785.203 Q 1029.934 785.226 1029.935 785.241 Q 1029.937 785.257 1029.528 785.924 Q 1029.120 786.591 1028.895 787.257 Q 1028.670 787.922 1028.572 788.203 Q 1028.473 788.485 1028.428 788.561 Q 1028.383 788.637 1028.367 788.674 Q 1028.352 788.710 1028.359 788.694 Q 1028.367 788.678 1028.372 788.664 Q 1028.378 788.651 1028.374 788.660 Q 1028.369 788.670 1028.309 788.839 Q 1028.248 789.008 1028.152 789.279 Q 1028.055 789.551 1028.063 789.548 Q 1028.070 789.544 1028.068 789.527 Q 1028.066 789.510 1028.034 789.641 Q 1028.002 789.771 1027.989 789.978 Q 1027.975 790.184 1027.784 790.652 Q 1027.593 791.120 1027.469 791.279 Q 1027.346 791.437 1027.315 791.516 Q 1027.285 791.595 1027.285 791.576 Q 1027.284 791.556 1027.259 791.685 Q 1027.233 791.814 1027.209 792.024 Q 1027.186 792.233 1027.166 792.363 Q 1027.146 792.492 1027.149 792.460 Q 1027.152 792.427 1027.153 792.443 Q 1027.153 792.458 1027.113 792.591 Q 1027.072 792.723 1027.056 792.750 Q 1027.041 792.777 1027.020 792.825 Q 1026.999 792.874 1027.037 792.794 Q 1027.075 792.714 1026.936 792.997 Q 1026.796 793.279 1026.725 793.470 Q 1026.653 793.661 1026.629 793.775 Q 1026.604 793.889 1026.597 793.927 Q 1026.590 793.966 1026.608 793.907 Q 1026.626 793.848 1026.595 794.178 Q 1026.564 794.509 1026.474 794.780 Q 1026.383 795.052 1026.346 795.193 Q 1026.309 795.334 1026.315 795.254 Q 1026.320 795.175 1026.181 795.814 Q 1026.042 796.454 1025.977 797.108 Q 1025.913 797.763 1025.828 798.029 Q 1025.742 798.294 1025.753 798.469 Q 1025.765 798.644 1025.747 798.582 Q 1025.729 798.520 1025.744 798.592 Q 1025.759 798.664 1025.748 798.582 Q 1025.737 798.500 1025.806 798.728 Q 1025.874 798.957 1025.874 799.157 Q 1025.875 799.357 1025.961 799.524 Q 1026.047 799.691 1026.032 799.732 Q 1026.017 799.774 1026.024 799.777 Q 1026.031 799.780 1026.022 799.716 Q 1026.012 799.653 1026.043 800.706 Q 1026.074 801.758 1026.095 802.419 Q 1026.117 803.080 1026.181 803.775 Q 1026.245 804.469 1026.319 805.367 Q 1026.393 806.265 1026.402 806.664 Q 1026.412 807.063 1026.409 807.296 Q 1026.406 807.529 1026.407 807.630 Q 1026.408 807.731 1026.412 807.799 Q 1026.415 807.867 1026.423 807.961 Q 1026.431 808.054 1026.435 808.040 Q 1026.440 808.025 1026.429 808.018 Q 1026.419 808.011 1026.485 808.164 Q 1026.551 808.318 1026.708 808.878 Q 1026.864 809.438 1026.924 809.723 Q 1026.984 810.008 1027.043 810.194 Q 1027.103 810.380 1027.095 810.340 Q 1027.087 810.301 1027.105 810.349 Q 1027.123 810.398 1027.194 810.566 Q 1027.266 810.735 1027.323 811.029 Q 1027.380 811.324 1027.402 811.368 Q 1027.424 811.412 1027.434 811.433 Q 1027.444 811.455 1027.419 811.416 Q 1027.394 811.377 1027.459 811.529 Q 1027.524 811.681 1027.660 811.919 Q 1027.795 812.156 1027.798 812.155 Q 1027.800 812.154 1027.797 812.147 Q 1027.793 812.140 1027.834 812.174 Q 1027.875 812.209 1028.020 812.466 Q 1028.166 812.723 1028.533 813.199 Q 1028.900 813.676 1029.082 813.819 Q 1029.263 813.962 1029.493 814.088 Q 1029.723 814.215 1029.714 814.225 Q 1029.704 814.235 1029.714 814.240 Q 1029.725 814.244 1029.712 814.228 Q 1029.699 814.213 1029.821 814.408 Q 1029.943 814.604 1029.935 814.591 Q 1029.927 814.579 1029.937 814.588 Q 1029.947 814.597 1029.920 814.567 Q 1029.893 814.536 1029.930 814.593 Q 1029.968 814.649 1030.165 814.872 Q 1030.363 815.094 1030.343 815.066 Q 1030.324 815.038 1030.352 815.088 Q 1030.381 815.137 1030.386 815.070 Q 1030.391 815.004 1030.752 815.422 Q 1031.112 815.841 1031.371 816.246 Q 1031.629 816.651 1031.846 816.903 Q 1032.063 817.155 1032.156 817.226 Q 1032.249 817.297 1032.267 817.346 Q 1032.284 817.395 1032.288 817.379 Q 1032.292 817.363 1032.358 817.497 Q 1032.424 817.631 1032.551 817.973 Q 1032.677 818.315 1032.787 818.494 Q 1032.897 818.672 1032.887 818.661 Q 1032.878 818.650 1032.908 818.704 Q 1032.938 818.758 1032.891 818.667 Q 1032.844 818.576 1033.175 818.923 Q 1033.505 819.270 1033.544 819.504 Q 1033.583 819.739 1033.881 820.054 Q 1034.180 820.370 1034.333 820.575 Q 1034.487 820.779 1034.544 820.978 Q 1034.602 821.177 1034.698 821.391 Q 1034.793 821.604 1034.758 821.536 Q 1034.723 821.469 1034.767 821.577 Q 1034.810 821.686 1034.956 821.966 Q 1035.101 822.246 1035.124 822.425 Q 1035.147 822.603 1035.131 822.526 Q 1035.115 822.449 1035.120 822.483 Q 1035.125 822.517 1035.124 822.492 Q 1035.122 822.467 1035.118 822.478 Q 1035.114 822.489 1035.122 822.506 Q 1035.129 822.523 1035.245 822.935 Q 1035.361 823.347 1035.343 823.304 Q 1035.333 823.287 1035.406 823.506 Q 1035.480 823.725 1035.485 823.734 Q 1035.490 823.742 1035.608 823.963 Q 1035.727 824.184 1035.820 824.384 Q 1035.914 824.585 1035.892 824.531 Q 1035.871 824.476 1035.911 824.607 Q 1035.950 824.737 1036.104 824.859 Q 1036.258 824.981 1036.393 825.122 Q 1036.528 825.263 1036.702 825.384 Q 1036.876 825.504 1036.942 825.528 Q 1037.009 825.552 1037.037 825.566 Q 1037.065 825.581 1036.997 825.552 Q 1036.928 825.524 1037.285 825.748 Q 1037.641 825.972 1037.890 826.094 Q 1038.138 826.217 1038.307 826.258 Q 1038.476 826.300 1038.448 826.289 Q 1038.420 826.279 1038.412 826.266 Q 1038.404 826.253 1038.437 826.280 Q 1038.469 826.307 1038.439 826.280 Q 1038.408 826.253 1038.606 826.391 Q 1038.804 826.530 1038.836 826.564 Q 1038.867 826.597 1038.883 826.604 Q 1038.898 826.611 1038.859 826.600 Q 1038.820 826.588 1039.080 826.724 Q 1039.341 826.860 1039.485 826.912 Q 1039.630 826.964 1039.605 826.948 Q 1039.581 826.933 1039.571 826.931 Q 1039.561 826.928 1039.750 827.118 Q 1039.940 827.307 1040.087 827.398 Q 1040.233 827.489 1040.378 827.551 Q 1040.522 827.613 1040.721 827.683 Q 1040.919 827.753 1040.935 827.773 Q 1040.950 827.793 1040.946 827.767 Q 1040.942 827.742 1040.974 827.839 Q 1041.007 827.936 1041.619 828.185 Q 1042.230 828.434 1042.639 828.548 Q 1043.047 828.663 1043.288 828.717 Q 1043.529 828.771 1043.545 828.770 Q 1043.561 828.770 1043.595 828.787 Q 1043.628 828.804 1043.621 828.753 Q 1043.613 828.701 1044.064 828.903 Q 1044.515 829.105 1044.820 829.259 Q 1045.124 829.412 1045.026 829.381 Q 1044.929 829.351 1045.103 829.397 Q 1045.277 829.444 1045.569 829.516 Q 1045.861 829.588 1045.788 829.577 Q 1045.715 829.566 1045.810 829.599 Q 1045.904 829.631 1046.080 829.711 Q 1046.256 829.791 1046.182 829.766 Q 1046.108 829.740 1046.204 829.762 Q 1046.299 829.784 1046.415 829.811 Q 1046.531 829.838 1046.503 829.834 Q 1046.475 829.831 1046.492 829.831 Q 1046.508 829.831 1046.569 829.869 Q 1046.630 829.906 1046.688 829.935 Q 1046.746 829.964 1046.745 829.961 Q 1046.744 829.959 1046.953 830.014 Q 1047.162 830.068 1047.211 830.078 Q 1047.260 830.089 1047.252 830.090 Q 1047.164 830.030 1047.349 830.163 Q 1047.534 830.296 1047.750 830.431 Q 1047.965 830.566 1047.945 830.556 Q 1047.926 830.546 1047.925 830.549 Q 1047.925 830.552 1048.010 830.583 Q 1048.096 830.613 1048.446 830.745 Q 1048.797 830.876 1048.884 830.920 Q 1048.971 830.964 1049.019 830.977 Q 1049.066 830.990 1049.077 830.992 Q 1049.088 830.994 1049.188 831.076 Q 1049.287 831.157 1050.350 831.153 Q 1051.413 831.149 1052.526 831.206 Q 1053.640 831.263 1054.165 831.262 Q 1054.689 831.261 1055.316 831.250 Q 1055.942 831.239 1056.036 831.258 Q 1056.129 831.277 1056.699 831.251 Q 1057.269 831.224 1057.537 831.171 Q 1057.806 831.118 1057.942 831.071 Q 1058.078 831.023 1058.089 831.026 Q 1058.101 831.030 1058.075 831.024 Q 1058.050 831.017 1058.219 831.032 Q 1058.389 831.046 1058.836 830.915 Q 1059.282 830.784 1059.562 830.665 Q 1059.843 830.545 1059.872 830.541 Q 1059.902 830.537 1059.874 830.531 Q 1059.847 830.525 1059.966 830.520 Q 1060.085 830.516 1060.810 830.262 Q 1061.535 830.009 1061.973 829.891 Q 1062.410 829.773 1062.479 829.758 Q 1062.548 829.743 1062.458 829.761 Q 1062.368 829.780 1062.817 829.704 Q 1063.265 829.627 1063.331 829.616 Q 1063.396 829.605 1063.353 829.599 Q 1063.651 829.495 1063.642 829.502 Q 1064.057 829.351 1064.006 829.392 Q 1064.589 829.342 1064.401 829.362 Q 1064.804 829.317 1064.693 829.327 Q 1064.873 829.319 1065.043 829.199 Q 1065.212 829.078 1065.649 828.880 Q 1066.085 828.682 1066.356 828.537 Q 1066.626 828.392 1066.687 828.342 Q 1066.747 828.293 1066.727 828.311 Q 1066.707 828.328 1066.720 828.284 Q 1066.734 828.240 1067.492 827.914 Q 1068.250 827.587 1068.617 827.364 Q 1068.984 827.142 1069.224 827.000 Q 1069.465 826.859 1069.508 826.858 Q 1069.551 826.857 1069.618 826.835 Q 1069.686 826.813 1069.648 826.816 Q 1069.609 826.820 1069.785 826.789 Q 1069.960 826.758 1070.435 826.491 Q 1070.910 826.225 1071.130 826.039 Q 1071.351 825.853 1071.563 825.704 Q 1071.775 825.555 1071.920 825.462 Q 1072.065 825.369 1072.146 825.323 Q 1072.227 825.276 1072.310 825.231 Q 1072.394 825.187 1072.561 825.080 Q 1072.728 824.973 1072.903 824.825 Q 1073.078 824.677 1073.063 824.679 Q 1073.048 824.680 1073.076 824.666 Q 1073.103 824.651 1073.062 824.678 Q 1073.021 824.705 1073.205 824.534 Q 1073.389 824.364 1073.409 824.349 Q 1073.429 824.333 1073.425 824.337 Q 1073.422 824.340 1073.399 824.361 Q 1073.376 824.381 1073.389 824.371 Q 1073.402 824.360 1073.398 824.363 Q 1073.394 824.367 1073.400 824.359 Q 1073.405 824.352 1073.411 824.354 Q 1073.417 824.355 1073.535 824.236 Q 1073.653 824.116 1073.745 824.017 Q 1073.838 823.917 1073.818 823.923 Q 1073.799 823.928 1073.814 823.896 Q 1073.829 823.864 1073.831 823.903 Q 1073.834 823.943 1073.922 823.708 Q 1074.011 823.474 1074.062 823.183 Q 1074.113 822.893 1074.111 822.928 Q 1074.109 822.964 1074.122 822.948 Q 1074.135 822.931 1074.427 822.727 Q 1074.719 822.522 1074.655 822.534 Q 1074.786 822.311 1074.875 822.229 Q 1074.964 822.147 1075.001 821.919 Q 1075.038 821.690 1075.047 821.667 Q 1075.056 821.644 1075.017 821.693 Q 1074.979 821.741 1075.112 821.582 Q 1075.245 821.423 1075.394 821.192 Q 1075.542 820.962 1075.521 820.985 Q 1075.500 821.009 1075.540 820.959 Q 1075.579 820.909 1075.516 820.951 Q 1075.453 820.993 1075.700 820.618 Q 1075.947 820.243 1076.154 820.008 Q 1076.361 819.772 1076.645 819.420 Q 1076.930 819.068 1077.004 819.011 Q 1077.079 818.953 1077.230 818.682 Q 1077.410 818.524 1077.410 818.515 Q 1077.410 818.506 1077.414 818.502 Q 1077.418 818.498 1077.519 818.364 Q 1077.619 818.229 1077.657 818.155 Q 1077.696 818.081 1077.721 818.003 Q 1077.746 817.925 1077.783 817.819 Q 1077.821 817.713 1077.828 817.692 Q 1077.835 817.670 1077.837 817.669 Q 1077.839 817.668 1077.994 817.415 Q 1078.149 817.162 1078.081 817.328 Q 1078.013 817.494 1078.444 817.027 Q 1078.876 816.560 1079.047 816.232 Q 1079.218 815.905 1079.394 815.664 Q 1079.571 815.423 1079.536 815.474 Q 1079.501 815.525 1079.575 815.417 Q 1079.650 815.310 1079.700 815.106 Q 1079.751 814.903 1079.760 814.838 Q 1079.769 814.773 1079.832 814.570 Q 1079.895 814.367 1079.911 814.361 Q 1079.927 814.355 1079.904 814.371 Q 1079.882 814.386 1080.057 814.227 Q 1080.232 814.067 1080.329 813.901 Q 1080.427 813.735 1080.436 813.591 Q 1080.446 813.447 1080.466 813.343 Q 1080.486 813.239 1080.480 813.272 Q 1080.474 813.305 1080.483 813.270 Q 1080.492 813.234 1080.585 813.097 Q 1080.677 812.960 1080.681 812.961 Q 1080.684 812.963 1080.701 812.929 Q 1080.718 812.896 1080.744 812.764 Q 1080.771 812.631 1080.868 812.400 Q 1080.965 812.168 1080.949 812.212 Q 1080.933 812.255 1080.994 812.057 Q 1081.056 811.859 1081.039 811.904 Q 1081.023 811.949 1081.066 811.822 Q 1081.109 811.695 1081.258 811.435 Q 1081.406 811.176 1081.410 811.174 Q 1081.413 811.172 1081.417 811.164 Q 1081.421 811.156 1081.428 811.145 Q 1081.435 811.134 1081.482 811.059 Q 1081.530 810.984 1081.538 810.910 Q 1081.545 810.835 1081.693 810.354 Q 1081.841 809.874 1081.878 809.542 Q 1081.915 809.209 1081.927 809.063 Q 1081.940 808.916 1081.944 808.748 Q 1081.949 808.580 1081.948 808.576 Q 1081.948 808.571 1081.948 808.536 Q 1081.948 808.501 1081.947 808.364 Q 1081.947 808.227 1081.947 808.250 Q 1081.947 808.272 1081.946 808.037 Q 1081.945 807.802 1081.947 807.812 Q 1081.948 807.822 1081.946 807.720 Q 1081.945 807.619 1081.942 807.666 Q 1081.938 807.713 1081.958 807.095 Q 1081.976 806.477 1081.983 806.104 Q 1081.989 805.732 1081.990 805.497 Q 1081.990 805.261 1081.990 805.281 Q 1081.989 805.301 1081.989 805.243 Q 1081.989 805.185 1081.989 805.087 Q 1081.988 804.989 1081.987 804.774 Q 1081.987 804.559 1081.986 804.397 Q 1081.986 804.235 1081.986 804.233 Q 1081.986 804.231 1081.985 804.009 Q 1081.984 803.787 1081.987 803.777 Q 1081.989 803.767 1081.987 803.722 Q 1081.985 803.677 1081.972 803.148 Q 1081.958 802.618 1081.974 802.197 Q 1081.990 801.775 1082.009 801.588 Q 1082.027 801.400 1082.061 801.251 Q 1082.096 801.101 1082.136 800.920 Q 1082.177 800.739 1082.157 800.877 Q 1082.137 801.015 1082.233 800.662 Q 1082.329 800.308 1082.330 799.641 Q 1082.330 798.974 1082.356 798.615 Q 1082.381 798.256 1082.317 797.783 Q 1082.253 797.310 1082.268 797.132 Q 1082.283 796.954 1082.278 796.732 Q 1082.273 796.510 1082.245 796.307 Q 1082.217 796.104 1082.209 796.101 Q 1082.200 796.097 1082.206 796.104 Q 1082.212 796.111 1082.188 795.898 Q 1082.165 795.684 1082.149 795.562 Q 1082.132 795.440 1082.124 795.395 Q 1082.115 795.350 1082.109 795.361 Q 1082.103 795.373 1082.007 795.134 Q 1081.911 794.894 1081.871 794.632 Q 1081.831 794.369 1081.793 794.166 Q 1081.756 793.963 1081.763 793.992 Q 1081.771 794.021 1081.764 793.961 Q 1081.758 793.901 1081.717 793.913 Q 1081.677 793.926 1081.638 793.435 Q 1081.599 792.944 1081.521 792.451 Q 1081.444 791.958 1081.434 791.688 Q 1081.424 791.417 1081.370 791.293 Q 1081.315 791.170 1081.322 791.179 Q 1081.330 791.188 1081.316 791.170 Q 1081.302 791.153 1081.220 791.018 Q 1081.138 790.883 1081.065 790.770 Q 1080.992 790.657 1080.995 790.653 Q 1080.998 790.649 1081.019 790.653 Q 1081.040 790.657 1080.849 790.233 Q 1080.657 789.809 1080.494 789.459 Q 1080.331 789.108 1080.291 788.903 Q 1080.251 788.698 1080.210 788.638 Q 1080.168 788.577 1080.151 788.516 Q 1080.134 788.454 1080.162 788.576 Q 1080.190 788.697 1079.977 788.092 Q 1079.765 787.488 1079.616 787.074 Q 1079.468 786.660 1079.424 786.547 Q 1079.380 786.435 1079.377 786.436 Q 1079.375 786.437 1079.395 786.472 Q 1079.414 786.507 1079.277 786.242 Q 1079.140 785.977 1079.044 785.802 Q 1078.948 785.628 1078.841 785.438 Q 1078.734 785.249 1078.749 785.303 Q 1078.765 785.357 1078.708 785.251 Q 1078.652 785.146 1078.461 784.670 Q 1078.271 784.195 1078.035 783.835 Q 1077.799 783.475 1077.601 783.200 Q 1077.403 782.926 1077.268 782.787 Q 1077.132 782.647 1076.985 782.558 Q 1076.837 782.468 1076.838 782.465 Q 1076.839 782.462 1076.856 782.493 Q 1076.873 782.523 1076.718 782.370 Q 1076.563 782.216 1076.178 782.007 Q 1075.794 781.797 1075.453 781.722 Q 1075.112 781.647 1074.914 781.548 Q 1074.715 781.448 1074.647 781.407 Q 1074.578 781.365 1074.468 781.288 Q 1074.356 781.210 1074.339 781.199 Q 1074.321 781.188 1074.352 781.211 Q 1074.383 781.235 1074.171 781.097 Q 1073.959 780.959 1073.960 780.955 Q 1073.960 780.951 1073.907 780.910 Q 1073.854 780.870 1073.691 780.729 Q 1073.529 780.587 1073.569 780.617 Q 1073.609 780.647 1073.570 780.621 Q 1073.530 780.594 1073.582 780.626 Q 1073.633 780.658 1073.415 780.507 Q 1073.198 780.356 1073.068 780.279 Q 1072.939 780.203 1072.848 780.097 Q 1072.757 779.991 1072.667 779.891 Q 1072.578 779.791 1072.567 779.765 Q 1072.555 779.738 1072.617 779.780 Q 1072.678 779.822 1072.280 779.346 Q 1071.881 778.870 1071.641 778.626 Q 1071.401 778.382 1071.255 778.218 Q 1071.109 778.054 1071.105 778.062 Q 1071.102 778.069 1071.113 778.072 Q 1071.124 778.076 1071.114 778.066 Q 1071.103 778.056 1071.124 778.078 Q 1071.145 778.099 1071.077 778.034 Q 1071.009 777.969 1070.863 777.857 Q 1070.717 777.744 1070.718 777.755 Q 1070.720 777.766 1070.730 777.768 Q 1070.740 777.769 1070.741 777.776 Q 1070.743 777.783 1070.745 777.784 Q 1070.748 777.786 1070.726 777.776 Q 1070.703 777.765 1070.568 777.652 Q 1070.434 777.539 1070.316 777.433 Q 1070.198 777.326 1070.198 777.326 Q 1070.199 777.325 1070.215 777.318 Q 1070.230 777.311 1070.172 777.267 Q 1070.113 777.223 1069.840 777.061 Q 1069.567 776.900 1069.392 776.727 Q 1069.218 776.554 1069.221 776.562 Q 1069.224 776.571 1069.189 776.554 Q 1069.155 776.538 1068.925 776.323 Q 1068.696 776.108 1068.811 776.183 Q 1068.926 776.258 1068.718 776.072 Q 1068.510 775.886 1068.326 775.851 Q 1068.142 775.817 1067.927 775.666 Q 1067.712 775.514 1067.707 775.521 Q 1067.702 775.527 1067.685 775.509 Q 1067.667 775.490 1067.544 775.480 Q 1067.421 775.470 1067.378 775.463 Q 1067.336 775.456 1067.373 775.474 Q 1067.410 775.492 1067.307 775.453 Q 1067.205 775.414 1067.055 775.373 Q 1066.906 775.331 1066.798 775.310 Q 1066.691 775.288 1066.659 775.297 Q 1066.626 775.307 1066.693 775.297 Q 1066.759 775.286 1066.534 775.315 Q 1066.309 775.344 1066.095 775.328 Q 1065.881 775.312 1065.733 775.214 Q 1065.585 775.116 1065.547 775.112 Q 1065.510 775.109 1065.565 775.108 Q 1065.620 775.108 1065.463 775.079 Q 1065.307 775.051 1065.071 775.048 Q 1064.834 775.046 1064.759 775.020 Q 1064.683 774.994 1064.638 774.981 Q 1064.593 774.969 1064.403 774.845 Q 1064.213 774.721 1064.213 774.726 Q 1064.214 774.731 1064.217 774.729 Q 1064.220 774.727 1064.195 774.715 Q 1064.169 774.704 1064.015 774.617 Q 1063.861 774.531 1063.808 774.509 Q 1063.754 774.487 1063.763 774.495 Q 1063.771 774.503 1063.729 774.490 Q 1063.688 774.476 1063.751 774.480 Q 1063.815 774.483 1063.603 774.516 Q 1063.390 774.549 1063.198 774.446 Q 1063.006 774.344 1062.840 774.203 Q 1062.674 774.062 1062.674 774.079 Q 1062.674 774.095 1062.688 774.091 Q 1062.701 774.086 1062.643 774.072 Q 1062.584 774.058 1062.640 774.073 Q 1062.695 774.087 1062.599 774.082 Q 1062.502 774.077 1062.068 773.837 Q 1061.634 773.597 1061.423 773.492 Q 1061.213 773.387 1061.188 773.406 Q 1061.164 773.424 1060.979 773.409 Q 1060.794 773.393 1060.812 773.397 Q 1060.829 773.401 1060.786 773.376 Q 1060.742 773.350 1060.738 773.385 Q 1060.734 773.419 1060.740 773.319 Q 1060.745 773.218 1060.140 773.040 Q 1059.536 772.863 1059.098 772.838 Q 1058.660 772.813 1058.484 772.822 Q 1058.308 772.831 1058.310 772.835 Q 1058.312 772.838 1058.322 772.836 Q 1058.332 772.834 1058.254 772.839 Q 1058.175 772.844 1058.222 772.850 Q 1058.270 772.855 1057.921 772.872 Q 1057.572 772.889 1057.301 772.895 Q 1057.031 772.901 1056.937 772.892 Q 1056.843 772.883 1056.698 772.859 Q 1056.554 772.836 1056.505 772.830 Q 1056.456 772.823 1056.449 772.825 Q 1056.443 772.827 1056.475 772.834 Q 1056.507 772.842 1056.491 772.842 Q 1056.475 772.842 1056.375 772.812 Q 1056.275 772.781 1056.125 772.732 Q 1055.975 772.683 1055.997 772.678 Q 1056.019 772.674 1056.016 772.676 Q 1056.012 772.679 1055.934 772.576 Q 1055.855 772.474 1055.677 772.459 Q 1055.499 772.444 1055.425 772.454 Q 1055.351 772.463 1055.151 772.521 Q 1054.951 772.580 1054.995 772.571 Q 1055.039 772.562 1055.036 772.564 Q 1055.033 772.566 1054.950 772.565 Q 1054.867 772.565 1054.890 772.566 Q 1054.912 772.568 1054.507 772.568 Q 1054.102 772.567 1053.726 772.570 Q 1053.349 772.572 1053.054 772.585 Q 1052.759 772.599 1052.622 772.597 Q 1052.484 772.595 1052.484 772.596 Q 1052.485 772.597 1052.498 772.597 Q 1052.512 772.596 1052.439 772.608 Q 1052.366 772.620 1052.504 772.588 Q 1052.641 772.557 1052.239 772.601 Q 1051.838 772.645 1051.510 772.739 Q 1051.183 772.833 1051.099 772.843 Q 1051.015 772.853 1051.043 772.854 Q 1051.070 772.855 1051.059 772.849 Q 1051.048 772.843 1050.648 772.850 Q 1050.247 772.856 1049.818 772.966 Q 1049.390 773.076 1049.219 773.083 Q 1049.049 773.091 1048.930 773.097 Q 1048.811 773.103 1048.813 773.102 Q 1048.815 773.101 1048.821 773.106 Q 1048.827 773.111 1048.844 773.100 Q 1048.860 773.090 1048.629 773.158 Q 1048.398 773.227 1048.264 773.332 Q 1048.129 773.437 1047.927 773.583 Q 1047.725 773.729 1047.703 773.742 Q 1047.682 773.755 1047.662 773.764 Q 1047.642 773.773 1047.697 773.751 Q 1047.751 773.730 1047.012 773.948 Q 1047.221 774.148 1047.457 774.138 Q 1047.693 774.128 1047.886 774.139 "></path>
    <path id="STROKE_fd2cd6ac-5f04-45cc-a0df-42cde01fa917" opacity="1.000" fill="#31aee4" stroke="#31aee4" stroke-width="0.500" stroke-opacity="1.000" stroke-linecap="round" stroke-linejoin="round" d="M 959.921 854.338 Q 959.983 854.336 959.485 854.602 Q 959.478 854.575 959.592 854.614 Q 959.705 854.653 960.056 854.574 Q 960.407 854.496 960.587 854.322 Q 960.767 854.149 961.242 854.199 Q 961.717 854.249 962.060 854.213 Q 962.403 854.177 962.615 854.032 Q 962.827 853.888 962.846 853.867 Q 962.864 853.845 962.951 853.830 Q 963.038 853.815 963.176 853.801 Q 963.314 853.787 963.222 853.774 Q 963.131 853.760 963.331 853.824 Q 963.530 853.887 963.690 853.936 Q 963.850 853.985 964.058 853.986 Q 964.266 853.986 964.256 853.990 Q 964.246 853.995 964.229 853.976 Q 964.212 853.958 964.543 854.022 Q 964.874 854.086 965.036 854.119 Q 965.198 854.152 965.299 854.145 Q 965.401 854.138 965.464 854.140 Q 965.527 854.142 965.708 854.141 Q 965.888 854.141 965.922 854.136 Q 965.955 854.132 965.906 854.148 Q 965.856 854.165 966.145 854.133 Q 966.434 854.102 966.652 854.074 Q 966.870 854.047 967.053 854.010 Q 967.236 853.974 967.181 853.984 Q 967.126 853.994 967.362 853.978 Q 967.597 853.962 967.613 853.962 Q 967.629 853.963 968.072 853.951 Q 968.515 853.938 968.685 853.937 Q 968.855 853.935 968.902 853.936 Q 968.949 853.937 969.028 853.940 Q 969.107 853.943 969.099 853.941 Q 969.091 853.940 969.095 853.952 Q 969.098 853.965 969.677 853.959 Q 970.257 853.953 970.771 853.975 Q 971.286 853.997 971.478 854.042 Q 971.670 854.086 971.765 854.099 Q 971.860 854.113 971.917 854.121 Q 971.973 854.129 971.929 854.114 Q 971.885 854.100 972.270 854.167 Q 972.655 854.235 972.999 854.254 Q 973.342 854.273 973.472 854.316 Q 973.603 854.360 973.876 854.407 Q 974.150 854.454 974.305 854.453 Q 974.459 854.452 974.691 854.497 Q 974.923 854.542 974.844 854.513 Q 974.764 854.485 974.963 854.570 Q 975.162 854.655 975.330 854.688 Q 975.499 854.722 976.246 854.931 Q 976.994 855.141 977.391 855.300 Q 977.788 855.458 977.867 855.479 Q 977.946 855.500 978.000 855.518 Q 978.054 855.536 978.036 855.529 Q 978.017 855.522 978.034 855.529 Q 978.050 855.535 978.009 855.524 Q 977.968 855.512 977.995 855.519 Q 978.022 855.525 978.006 855.521 Q 977.991 855.517 977.995 855.521 Q 978.000 855.524 978.229 855.594 Q 978.457 855.665 978.607 855.703 Q 978.757 855.741 978.740 855.758 Q 978.722 855.711 978.763 855.752 Q 978.804 855.792 978.778 855.769 Q 978.752 855.746 978.978 855.957 Q 979.205 856.167 979.189 856.172 Q 979.330 856.292 979.397 856.339 Q 979.464 856.387 979.544 856.455 Q 979.625 856.523 979.768 856.677 Q 979.911 856.832 979.838 856.779 Q 979.765 856.726 980.118 856.978 Q 980.470 857.230 980.536 857.315 Q 980.601 857.401 981.002 857.586 Q 981.404 857.772 981.585 857.820 Q 981.766 857.868 981.963 857.971 Q 982.159 858.073 982.168 858.071 Q 982.177 858.069 982.192 858.079 Q 982.206 858.089 982.331 858.095 Q 982.455 858.102 982.651 858.101 Q 982.846 858.100 982.797 858.100 Q 982.749 858.100 983.090 858.100 Q 983.432 858.100 983.838 858.100 Q 984.244 858.100 984.398 858.100 Q 984.552 858.100 984.659 858.100 Q 984.765 858.100 984.781 858.101 Q 984.797 858.101 984.829 858.102 Q 984.861 858.102 984.971 858.109 Q 985.082 858.116 985.259 858.216 Q 985.436 858.317 985.581 858.391 Q 985.725 858.466 985.773 858.495 Q 985.821 858.523 985.787 858.494 Q 986.196 858.633 986.074 858.595 Q 986.246 858.651 986.353 858.694 Q 986.461 858.737 986.416 858.716 Q 986.371 858.696 986.435 858.755 Q 986.500 858.813 986.839 858.950 Q 987.178 859.086 987.778 859.684 Q 988.378 860.282 988.680 860.610 Q 988.982 860.939 989.062 861.049 Q 989.141 861.158 989.264 861.291 Q 989.387 861.425 989.401 861.431 Q 989.414 861.438 989.426 861.451 Q 989.438 861.464 989.414 861.440 Q 989.390 861.415 989.539 861.557 Q 989.689 861.699 989.710 861.715 Q 989.731 861.732 989.727 861.725 Q 989.723 861.719 989.757 861.757 Q 989.790 861.794 989.933 861.957 Q 990.076 862.120 990.079 862.142 Q 990.082 862.164 990.105 862.170 Q 990.128 862.175 990.093 862.217 Q 990.058 862.259 990.365 862.567 Q 990.672 862.875 991.032 863.225 Q 991.393 863.575 991.533 863.806 Q 991.672 864.037 991.728 864.130 Q 991.783 864.224 991.923 864.373 Q 992.062 864.522 992.047 864.501 Q 992.032 864.480 992.011 864.476 Q 991.991 864.472 992.033 864.494 Q 992.076 864.516 992.037 864.494 Q 991.997 864.471 992.233 864.615 Q 992.468 864.759 992.460 864.754 Q 992.452 864.749 992.440 864.739 Q 992.427 864.728 992.423 864.724 Q 992.418 864.720 992.413 864.715 Q 992.409 864.710 992.424 864.723 Q 992.440 864.736 992.589 864.859 Q 992.739 864.981 992.770 865.009 Q 992.801 865.038 992.803 865.036 Q 992.805 865.034 992.794 865.026 Q 992.783 865.017 992.815 865.072 Q 992.847 865.127 993.004 865.226 Q 993.161 865.325 993.290 865.390 Q 993.418 865.455 993.416 865.452 Q 993.413 865.449 993.427 865.454 Q 993.442 865.460 993.547 865.494 Q 993.653 865.528 993.850 865.622 Q 994.046 865.716 994.213 865.841 Q 994.380 865.966 994.414 866.021 Q 994.447 866.076 994.581 866.266 Q 994.716 866.455 994.721 866.468 Q 994.727 866.481 994.723 866.471 Q 994.719 866.460 994.801 866.583 Q 994.883 866.707 994.995 866.884 Q 995.107 867.062 995.239 867.277 Q 995.370 867.492 995.379 867.481 Q 995.389 867.469 995.410 867.489 Q 995.430 867.509 995.599 867.692 Q 995.769 867.876 995.674 867.767 Q 995.579 867.659 995.810 867.981 Q 996.041 868.304 996.352 868.604 Q 996.662 868.905 996.885 869.131 Q 997.109 869.357 997.211 869.549 Q 997.313 869.740 997.330 869.755 Q 997.347 869.769 997.344 869.768 Q 997.340 869.766 997.349 869.776 Q 997.357 869.786 997.369 869.806 Q 997.382 869.827 997.377 869.815 Q 997.372 869.804 997.482 869.942 Q 997.591 870.080 997.675 870.227 Q 997.758 870.373 997.860 870.562 Q 997.961 870.751 997.958 870.746 Q 997.955 870.741 997.969 870.748 Q 997.983 870.756 998.025 870.875 Q 998.066 870.993 998.179 871.474 Q 998.291 871.955 998.379 872.206 Q 998.468 872.457 998.573 872.572 Q 998.678 872.687 998.691 872.720 Q 998.703 872.753 998.744 872.820 Q 998.784 872.886 998.867 873.048 Q 998.951 873.210 998.921 873.167 Q 998.891 873.124 998.910 873.127 Q 998.929 873.130 999.189 873.470 Q 999.449 873.810 999.531 873.959 Q 999.613 874.108 999.711 874.190 Q 999.808 874.271 999.830 874.305 Q 999.853 874.340 999.944 874.455 Q 1000.036 874.569 1000.215 874.758 Q 1000.394 874.948 1000.455 875.054 Q 1000.515 875.160 1000.579 875.296 Q 1000.643 875.433 1000.635 875.426 Q 1000.626 875.418 1000.629 875.432 Q 1000.633 875.446 1000.633 875.384 Q 1000.633 875.321 1000.811 875.910 Q 1000.989 876.498 1001.121 876.934 Q 1001.252 877.371 1001.357 877.506 Q 1001.462 877.642 1001.519 877.797 Q 1001.576 877.951 1001.589 877.978 Q 1001.602 878.004 1001.620 878.055 Q 1001.637 878.105 1001.614 878.071 Q 1001.590 878.037 1001.722 878.373 Q 1001.854 878.709 1001.968 878.965 Q 1002.081 879.221 1002.101 879.257 Q 1002.121 879.293 1002.123 879.312 Q 1002.125 879.332 1002.120 879.314 Q 1002.116 879.295 1002.159 879.430 Q 1002.202 879.565 1002.354 880.036 Q 1002.506 880.507 1002.564 880.751 Q 1002.623 880.996 1002.625 880.997 Q 1002.626 880.998 1002.671 881.123 Q 1002.716 881.247 1002.723 881.250 Q 1002.730 881.253 1002.738 881.294 Q 1002.746 881.335 1002.742 881.282 Q 1002.738 881.229 1002.804 881.462 Q 1002.869 881.695 1002.861 881.842 Q 1002.853 881.990 1002.931 882.153 Q 1003.009 882.316 1002.999 882.299 Q 1002.989 882.281 1002.983 882.282 Q 1002.978 882.283 1003.061 882.404 Q 1003.144 882.525 1003.228 882.635 Q 1003.312 882.745 1003.289 882.734 Q 1003.437 883.178 1003.393 883.049 Q 1003.350 882.919 1003.400 883.119 Q 1003.450 883.320 1003.537 883.492 Q 1003.623 883.664 1003.677 883.805 Q 1003.730 883.946 1003.758 884.057 Q 1003.786 884.168 1003.828 884.298 Q 1003.869 884.429 1003.887 884.483 Q 1003.905 884.538 1003.934 884.638 Q 1003.963 884.739 1003.969 884.735 Q 1003.976 884.731 1003.963 884.709 Q 1003.950 884.687 1004.010 884.953 Q 1004.069 885.219 1004.159 885.462 Q 1004.249 885.704 1004.275 885.858 Q 1004.302 886.012 1004.308 886.030 Q 1004.313 886.048 1004.308 886.001 Q 1004.303 885.955 1004.342 886.108 Q 1004.380 886.261 1004.378 886.253 Q 1004.376 886.245 1004.416 886.424 Q 1004.455 886.603 1004.481 886.795 Q 1004.506 886.987 1004.518 887.040 Q 1004.529 887.094 1004.519 887.035 Q 1004.508 886.977 1004.578 887.367 Q 1004.647 887.758 1004.663 887.931 Q 1004.679 888.104 1004.685 888.183 Q 1004.691 888.262 1004.698 888.360 Q 1004.706 888.457 1004.713 888.540 Q 1004.720 888.622 1004.721 888.680 Q 1004.722 888.738 1004.723 888.681 Q 1004.724 888.624 1004.780 889.024 Q 1004.835 889.425 1004.865 889.889 Q 1004.894 890.353 1004.909 890.566 Q 1004.923 890.780 1004.931 890.899 Q 1004.939 891.019 1004.932 890.980 Q 1004.924 890.941 1004.946 891.122 Q 1004.967 891.304 1004.977 891.383 Q 1004.986 891.463 1005.001 891.607 Q 1005.015 891.751 1005.031 892.162 Q 1005.048 892.573 1005.052 892.772 Q 1005.057 892.971 1005.063 893.106 Q 1005.069 893.240 1005.067 893.276 Q 1005.066 893.311 1005.065 893.305 Q 1005.119 893.611 1005.122 893.632 Q 1005.126 893.653 1005.124 893.636 Q 1005.130 893.642 1005.136 893.672 Q 1005.143 893.701 1005.172 894.197 Q 1005.200 894.693 1005.229 894.939 Q 1005.258 895.184 1005.274 895.264 Q 1005.291 895.344 1005.290 895.327 Q 1005.289 895.310 1005.280 895.269 Q 1005.271 895.227 1005.356 895.989 Q 1005.389 896.382 1005.376 896.266 Q 1005.376 896.759 1005.376 896.629 Q 1005.376 896.947 1005.376 896.968 Q 1005.376 896.989 1005.376 896.948 Q 1005.376 896.981 1005.376 897.155 Q 1005.536 897.105 1005.087 897.144 Q 1004.637 897.182 1004.393 897.236 Q 1004.149 897.291 1004.063 897.298 Q 1003.977 897.305 1003.938 897.320 Q 1003.899 897.334 1003.904 897.314 Q 1003.908 897.294 1003.877 897.332 Q 1003.845 897.369 1003.450 897.469 Q 1003.055 897.568 1002.836 897.582 Q 1002.617 897.595 1002.489 897.645 Q 1002.361 897.695 1002.364 897.692 Q 1002.367 897.690 1002.377 897.689 Q 1002.387 897.689 1002.391 897.688 Q 1002.395 897.688 1002.321 897.693 Q 1002.247 897.698 1002.279 897.694 Q 1002.311 897.689 1002.167 897.722 Q 1002.023 897.755 1001.838 897.740 Q 1001.654 897.726 1001.580 897.651 Q 1001.507 897.576 1001.443 897.547 Q 1001.379 897.517 1001.426 897.533 Q 1001.473 897.549 1001.400 897.521 Q 1001.327 897.493 1001.401 897.500 Q 1001.476 897.507 1001.236 897.422 Q 1000.996 897.337 1000.819 897.288 Q 1000.643 897.240 1000.649 897.239 Q 1000.655 897.238 1000.611 897.228 Q 1000.566 897.218 1000.476 897.196 Q 1000.386 897.174 1000.372 897.179 Q 1000.359 897.183 1000.259 897.181 Q 1000.159 897.180 1000.078 897.180 Q 999.997 897.180 999.999 897.181 Q 999.960 897.178 999.562 897.205 Q 999.163 897.232 999.259 897.226 Q 999.355 897.220 999.316 897.221 Q 999.276 897.222 999.121 897.227 Q 998.965 897.233 998.977 897.235 Q 998.989 897.237 998.989 897.243 Q 998.534 897.243 998.678 897.243 Q 998.145 897.243 998.336 897.243 Q 997.796 897.243 997.987 897.243 Q 997.495 897.243 997.679 897.243 Q 997.258 897.242 997.361 897.256 Q 997.453 897.192 997.175 897.354 Q 996.896 897.517 996.802 897.573 Q 996.708 897.630 996.756 897.606 Q 996.803 897.581 996.510 897.671 Q 996.216 897.761 996.043 897.806 Q 995.870 897.852 995.759 897.874 Q 995.649 897.896 995.617 897.894 Q 995.584 897.891 995.631 897.904 Q 995.677 897.918 995.295 897.936 Q 994.912 897.955 994.701 897.950 Q 994.490 897.945 994.444 897.947 Q 994.398 897.948 994.384 897.948 Q 994.370 897.947 994.342 897.941 Q 994.315 897.935 994.318 897.959 Q 994.320 897.983 994.067 897.921 Q 993.813 897.859 993.617 897.804 Q 993.422 897.749 993.224 897.751 Q 993.026 897.752 993.030 897.751 Q 993.034 897.750 992.984 897.741 Q 992.933 897.731 992.952 897.745 Q 992.971 897.758 992.594 897.754 Q 992.218 897.751 991.866 897.687 Q 991.514 897.623 991.384 897.580 Q 991.254 897.536 991.211 897.513 Q 991.167 897.490 991.172 897.491 Q 991.176 897.492 991.153 897.497 Q 991.129 897.501 991.145 897.501 Q 991.161 897.500 991.140 897.499 Q 991.118 897.498 991.157 897.495 Q 991.195 897.493 991.188 897.493 Q 991.181 897.493 990.991 897.469 Q 990.800 897.445 990.779 897.445 Q 990.758 897.444 990.713 897.448 Q 990.669 897.451 990.733 897.447 Q 990.797 897.444 990.612 897.438 Q 990.426 897.433 990.141 897.477 Q 989.855 897.521 989.750 897.545 Q 989.645 897.568 989.661 897.564 Q 989.676 897.560 989.655 897.569 Q 989.633 897.578 989.466 897.638 Q 989.299 897.699 989.211 897.702 Q 989.122 897.705 989.096 897.710 Q 989.070 897.715 989.088 897.711 Q 989.106 897.706 988.997 897.703 Q 988.888 897.700 988.612 897.741 Q 988.337 897.783 988.213 897.776 Q 988.090 897.768 988.082 897.771 Q 988.074 897.773 988.051 897.768 Q 988.028 897.764 988.038 897.766 Q 988.048 897.768 987.909 897.777 Q 987.769 897.787 987.561 897.735 Q 987.354 897.684 987.391 897.693 Q 987.429 897.703 987.233 897.645 Q 987.037 897.586 987.057 897.589 Q 987.076 897.592 987.056 897.596 Q 987.036 897.599 986.923 897.505 Q 986.810 897.411 986.852 897.453 Q 986.893 897.495 986.583 897.364 Q 986.272 897.232 986.122 897.173 Q 985.972 897.113 985.818 897.127 Q 985.663 897.141 985.689 897.136 Q 985.715 897.132 985.714 897.133 Q 985.714 897.135 985.592 897.134 Q 985.470 897.134 985.425 897.134 Q 985.381 897.134 985.403 897.134 Q 984.911 897.134 985.085 897.134 Q 984.570 897.134 984.746 897.134 Q 984.267 897.134 984.404 897.134 Q 983.896 897.134 984.076 897.134 Q 983.627 897.134 983.758 897.134 Q 983.257 897.134 983.353 897.134 Q 983.448 897.134 983.392 897.134 Q 983.336 897.134 983.206 897.134 Q 983.075 897.134 983.056 897.134 Q 983.037 897.134 983.041 897.134 Q 983.045 897.135 982.989 897.133 Q 982.933 897.132 982.886 897.135 Q 982.839 897.137 982.606 897.148 Q 982.373 897.159 982.381 897.156 Q 982.390 897.153 982.354 897.154 Q 982.319 897.155 982.247 897.155 Q 982.175 897.155 981.985 897.155 Q 981.796 897.155 981.591 897.155 Q 981.386 897.155 981.394 897.156 Q 981.401 897.158 981.406 897.159 Q 981.410 897.160 981.241 897.143 Q 981.073 897.126 980.450 897.269 Q 979.980 897.302 980.115 897.290 Q 979.582 897.290 979.773 897.290 Q 979.240 897.290 979.420 897.290 Q 979.158 897.294 979.178 897.269 Q 979.157 897.273 979.075 897.248 Q 978.993 897.223 978.590 897.223 Q 978.186 897.224 977.985 897.224 Q 977.784 897.225 977.605 897.211 Q 977.426 897.198 977.469 897.200 Q 977.512 897.203 977.478 897.202 Q 977.443 897.201 977.418 897.196 Q 977.393 897.191 977.453 897.211 Q 977.512 897.231 977.069 897.199 Q 976.627 897.168 976.276 897.094 Q 975.924 897.019 975.834 897.034 Q 975.744 897.048 975.683 897.047 Q 975.622 897.046 975.568 897.057 Q 975.514 897.068 975.493 897.077 Q 975.473 897.085 975.456 897.095 Q 975.438 897.105 975.276 897.117 Q 975.113 897.130 975.049 897.150 Q 974.984 897.170 974.472 897.145 Q 973.960 897.120 973.711 897.076 Q 973.463 897.032 973.319 897.040 Q 973.176 897.049 973.143 897.047 Q 973.111 897.045 973.063 897.046 Q 973.015 897.047 972.987 897.046 Q 972.958 897.046 972.707 897.046 Q 972.456 897.046 972.281 897.046 Q 972.106 897.046 972.133 897.046 Q 972.160 897.046 972.105 897.037 Q 972.050 897.029 972.128 897.056 Q 972.206 897.083 971.745 897.074 Q 971.285 897.064 971.030 897.007 Q 970.776 896.950 970.676 896.939 Q 970.576 896.928 970.558 896.920 Q 970.539 896.913 970.554 896.920 Q 970.568 896.928 970.572 896.928 Q 970.576 896.929 970.539 896.909 Q 970.502 896.888 970.361 896.848 Q 970.221 896.809 969.980 896.792 Q 969.739 896.775 969.762 896.780 Q 969.784 896.784 969.774 896.783 Q 969.765 896.781 969.583 896.781 Q 969.401 896.781 969.313 896.783 Q 969.224 896.785 969.190 896.786 Q 969.156 896.787 969.056 896.779 Q 968.956 896.771 968.820 896.733 Q 968.684 896.695 968.730 896.712 Q 968.777 896.729 968.750 896.712 Q 968.724 896.696 968.386 896.696 Q 968.048 896.696 967.907 896.708 Q 967.767 896.720 967.823 896.716 Q 967.878 896.713 967.658 896.714 Q 967.437 896.715 967.465 896.714 Q 967.159 896.714 967.138 896.714 Q 967.117 896.714 967.144 896.714 Q 966.758 896.682 966.850 896.694 Q 966.519 896.694 966.496 896.694 Q 966.473 896.694 966.518 896.694 Q 966.115 896.705 966.086 896.705 Q 966.056 896.705 966.114 896.714 Q 965.698 896.792 965.827 896.761 Q 965.239 896.830 965.454 896.815 Q 965.050 897.046 965.191 896.968 Q 964.642 897.134 964.842 897.067 Q 964.335 897.067 964.436 897.067 Q 964.537 897.067 964.476 897.067 Q 964.416 897.067 964.261 897.064 Q 964.107 897.061 964.155 897.060 Q 964.204 897.059 964.191 897.073 Q 964.178 897.088 964.116 897.050 Q 964.055 897.013 963.944 896.949 Q 963.834 896.885 963.841 896.903 Q 963.848 896.920 963.792 896.913 Q 963.736 896.907 963.670 896.858 Q 963.604 896.808 963.611 896.817 Q 963.617 896.825 963.616 896.823 Q 963.615 896.821 963.563 896.806 Q 963.512 896.791 963.555 896.796 Q 963.598 896.802 963.478 896.776 Q 963.359 896.751 963.169 896.728 Q 962.979 896.704 962.899 896.695 Q 962.819 896.685 962.865 896.694 Q 962.507 896.694 962.480 896.694 Q 962.453 896.694 962.523 896.694 Q 962.208 896.694 962.186 896.694 Q 962.164 896.694 962.205 896.694 Q 961.683 896.728 961.866 896.714 Q 961.740 896.736 961.637 896.772 Q 961.535 896.808 961.545 896.803 Q 961.208 896.779 961.272 896.771 Q 961.196 896.771 961.256 896.763 Q 961.316 896.755 961.080 896.713 Q 960.845 896.671 960.639 896.732 Q 960.433 896.793 960.434 896.803 Q 960.435 896.812 960.394 896.842 Q 960.354 896.872 960.286 896.928 Q 960.219 896.984 960.217 896.995 Q 960.215 897.005 960.254 896.945 Q 960.293 896.886 959.990 897.290 Q 960.100 897.148 960.373 896.816 Q 960.646 896.484 960.757 896.341 "></path>
  </g>
  <g id="Pen" opacity="1.000">
    <path id="STROKE_0f059e88-ec92-4bc0-9473-e3d879dd62fd" opacity="1.000" fill="none" stroke="#32aee4" stroke-width="7.140" stroke-opacity="1.000" stroke-linecap="round" stroke-linejoin="round" d="M 966.283 705.855 Q 965.258 705.855 965.331 705.855 Q 965.242 705.855 965.004 705.855 Q 964.766 705.855 958.601 705.855 Q 963.725 705.855 958.601 705.855 Q 958.601 714.706 958.601 721.855 Q 958.601 730.429 958.601 737.855 Q 958.601 746.710 958.601 753.855 Q 958.601 762.634 958.601 769.855 Q 958.601 778.447 958.601 785.855 Q 958.601 793.969 958.601 801.855 Q 958.601 810.451 958.601 817.855 Q 958.601 825.884 958.601 833.855 Q 958.601 842.276 958.601 849.855 Q 958.601 858.290 958.601 865.855 Q 958.601 873.991 958.601 881.855 Q 958.601 890.205 958.601 897.855 Q 966.938 897.855 974.601 897.855 Q 982.914 897.855 990.601 897.855 Q 999.188 897.855 1006.601 897.855 Q 1014.867 897.855 1022.601 897.855 Q 1031.022 897.855 1038.601 897.855 Q 1047.088 897.855 1054.601 897.855 Q 1063.540 897.855 1070.601 897.855 Q 1078.773 897.855 1086.601 897.855 Q 1095.404 897.855 1102.601 897.855 Q 1110.904 897.855 1118.601 897.855 Q 1126.762 897.855 1134.601 897.855 Q 1142.738 897.855 1150.601 897.855 Q 1150.601 889.714 1150.601 881.855 Q 1150.601 872.496 1150.601 865.855 Q 1150.601 857.799 1150.601 849.855 Q 1150.601 841.317 1150.601 833.855 Q 1150.601 825.616 1150.601 817.855 Q 1150.601 808.555 1150.601 801.855 Q 1150.601 793.411 1150.601 785.855 Q 1150.601 776.551 1150.601 769.855 Q 1150.601 761.385 1150.601 753.855 Q 1150.601 745.483 1150.601 737.855 Q 1150.601 729.381 1150.601 721.855 Q 1150.601 713.367 1150.601 705.855 Q 1142.084 705.855 1134.601 705.855 Q 1125.542 705.855 1118.601 705.855 Q 1109.476 705.855 1102.601 705.855 Q 1094.363 705.855 1086.601 705.855 Q 1077.256 705.855 1070.601 705.855 Q 1061.666 705.855 1054.601 705.855 Q 1044.827 705.855 1038.601 705.855 Q 1030.546 705.855 1022.601 705.855 Q 1013.647 705.855 1006.601 705.855 Q 997.849 705.855 990.601 705.855 Q 982.349 705.855 974.601 705.855 Q 966.283 705.855 958.601 705.855 Q 963.159 705.855 958.601 705.855 "></path>
    <path id="STROKE_4dc0887a-09b0-4b4b-a169-03384f1a6a49" opacity="1.000" fill="none" stroke="#32aee4" stroke-width="8.840" stroke-opacity="1.000" stroke-linecap="round" stroke-linejoin="round" d="M 1116.211 707.616 Q 1113.652 710.007 1113.582 710.072 Q 1113.511 710.138 1113.523 710.126 Q 1113.277 710.357 1113.304 710.332 Q 1112.973 710.641 1112.371 711.202 Q 1111.770 711.764 1111.223 712.275 Q 1110.677 712.785 1109.900 713.511 Q 1109.124 714.237 1108.600 714.726 Q 1108.076 715.216 1106.753 716.451 Q 1105.430 717.687 1104.698 718.371 Q 1103.966 719.055 1103.118 719.847 Q 1102.270 720.640 1101.401 721.451 Q 1100.532 722.263 1099.453 723.271 Q 1098.374 724.279 1097.844 724.774 Q 1097.314 725.269 1096.587 725.948 Q 1095.861 726.626 1093.301 729.018 Q 1090.740 731.410 1088.938 733.093 Q 1087.137 734.777 1085.327 736.467 Q 1083.517 738.158 1082.574 739.039 Q 1081.631 739.920 1081.060 740.453 Q 1080.490 740.986 1080.138 741.315 Q 1079.786 741.644 1078.623 742.730 Q 1077.459 743.817 1076.882 744.356 Q 1076.305 744.896 1074.915 746.194 Q 1073.526 747.492 1072.438 748.508 Q 1071.351 749.523 1070.748 750.087 Q 1070.145 750.650 1068.969 751.749 Q 1067.792 752.847 1066.192 754.343 Q 1064.591 755.838 1062.966 757.356 Q 1061.341 758.874 1060.363 759.788 Q 1059.385 760.702 1058.308 761.708 Q 1057.231 762.713 1056.693 763.216 Q 1056.155 763.718 1055.369 764.453 Q 1054.583 765.187 1053.979 765.751 Q 1053.376 766.315 1052.970 766.694 Q 1052.564 767.074 1050.866 768.659 Q 1049.169 770.245 1048.224 771.127 Q 1047.280 772.009 1046.888 772.376 Q 1046.495 772.743 1044.535 774.574 Q 1042.575 776.405 1041.423 777.481 Q 1040.271 778.557 1039.883 778.920 Q 1039.494 779.283 1039.103 779.649 Q 1038.711 780.015 1038.507 780.206 Q 1038.302 780.397 1038.101 780.585 Q 1037.899 780.773 1037.849 780.820 Q 1037.798 780.868 1037.766 780.898 Q 1037.734 780.928 1037.766 780.898 Q 1037.798 780.868 1037.585 781.067 Q 1037.372 781.266 1037.404 781.236 Q 1037.436 781.206 1037.379 781.259 Q 1037.322 781.312 1037.184 781.441 Q 1037.046 781.570 1037.046 781.570 Q 1037.046 781.570 1037.070 781.547 Q 1037.095 781.524 1036.923 781.685 Q 1036.751 781.846 1036.678 781.914 Q 1036.606 781.981 1036.581 782.004 Q 1036.557 782.027 1036.588 781.998 Q 1036.619 781.969 1036.449 782.127 Q 1036.280 782.286 1036.048 782.503 Q 1035.816 782.719 1035.631 782.891 Q 1035.447 783.064 1035.445 783.066 Q 1035.442 783.069 1035.447 783.065 Q 1035.451 783.061 1035.454 783.057 Q 1035.458 783.054 1035.469 783.044 Q 1035.479 783.034 1035.030 783.453 "></path>
    <path id="STROKE_ff3c9655-3a2c-4621-841c-51b692af2a47" opacity="1.000" fill="none" stroke="#32aee4" stroke-width="3.797" stroke-opacity="1.000" stroke-linecap="round" stroke-linejoin="round" d="M 1083.330 798.076 Q 1083.245 797.736 1083.069 796.431 Q 1082.893 795.126 1082.297 793.070 Q 1081.700 791.014 1080.883 789.382 Q 1080.065 787.751 1079.622 786.952 Q 1079.178 786.153 1078.405 785.043 Q 1077.632 783.933 1077.115 783.307 Q 1076.598 782.681 1076.179 782.199 Q 1075.759 781.716 1074.911 780.871 Q 1074.063 780.026 1073.393 779.463 Q 1072.722 778.900 1072.336 778.606 Q 1071.951 778.312 1071.737 778.147 Q 1071.523 777.982 1070.822 777.524 Q 1070.122 777.065 1069.606 776.696 Q 1069.091 776.327 1067.397 775.503 Q 1065.703 774.678 1064.606 774.293 Q 1063.510 773.908 1063.039 773.772 Q 1062.568 773.635 1061.483 773.348 Q 1060.398 773.060 1058.442 772.752 Q 1056.485 772.444 1054.159 772.471 Q 1051.833 772.499 1049.975 772.834 Q 1048.118 773.170 1046.676 773.513 Q 1045.234 773.857 1043.216 774.735 Q 1041.199 775.614 1040.254 776.172 Q 1039.310 776.730 1038.960 776.977 Q 1038.610 777.223 1038.119 777.479 Q 1037.627 777.736 1036.137 778.971 Q 1034.646 780.207 1033.893 780.999 Q 1033.141 781.791 1032.656 782.352 Q 1032.172 782.913 1031.454 783.727 Q 1030.737 784.541 1029.771 786.178 Q 1028.806 787.815 1028.396 788.740 Q 1027.985 789.665 1027.775 790.078 Q 1027.564 790.491 1026.895 792.399 Q 1026.225 794.306 1025.859 796.526 Q 1025.494 798.746 1025.420 800.470 Q 1025.347 802.194 1025.523 804.050 Q 1025.699 805.907 1025.914 806.943 Q 1026.130 807.980 1026.242 808.438 Q 1026.354 808.896 1026.513 809.454 Q 1026.672 810.012 1026.797 810.397 Q 1026.922 810.781 1027.301 811.799 Q 1027.679 812.817 1028.282 814.136 Q 1028.885 815.455 1029.936 817.082 Q 1030.986 818.709 1031.592 819.470 Q 1032.199 820.231 1032.943 821.050 Q 1033.687 821.869 1034.163 822.311 Q 1034.640 822.753 1035.128 823.194 Q 1035.616 823.635 1036.473 824.370 Q 1037.331 825.105 1038.907 826.078 Q 1040.482 827.051 1041.340 827.447 Q 1042.197 827.843 1042.544 828.007 Q 1042.891 828.171 1044.399 828.773 Q 1045.906 829.375 1048.126 829.870 Q 1050.345 830.365 1052.442 830.500 Q 1054.538 830.634 1056.576 830.540 Q 1058.614 830.446 1060.848 829.885 Q 1063.082 829.325 1064.164 828.934 Q 1065.247 828.542 1065.992 828.210 Q 1066.736 827.877 1067.149 827.682 Q 1067.562 827.487 1068.260 827.096 Q 1068.958 826.705 1069.260 826.543 Q 1069.561 826.382 1070.748 825.594 Q 1071.935 824.805 1073.207 823.750 Q 1074.479 822.695 1075.634 821.435 Q 1076.790 820.175 1077.309 819.526 Q 1077.827 818.877 1078.472 817.900 Q 1079.117 816.924 1079.370 816.536 Q 1079.624 816.148 1080.274 814.894 Q 1080.923 813.640 1081.300 812.688 Q 1081.677 811.736 1082.062 810.660 Q 1082.448 809.585 1082.807 808.027 Q 1083.166 806.469 1083.311 805.134 Q 1083.456 803.799 1083.487 803.134 Q 1083.518 802.470 1083.534 801.474 Q 1083.549 800.477 1083.445 799.245 Q 1083.340 798.014 1083.240 797.376 Q 1083.140 796.739 1083.076 796.385 Q 1083.012 796.031 1082.977 795.855 Q 1082.941 795.679 1082.915 795.559 Q 1082.888 795.439 1082.906 795.498 Q 1082.923 795.557 1082.596 794.201 Q 1082.659 794.446 1082.655 794.431 Q 1082.652 794.417 1082.715 794.675 "></path>
    <path id="STROKE_5ab6aa0d-1ff0-47ac-ba35-439219415c37" opacity="1.000" fill="none" stroke="#32aee4" stroke-width="8.840" stroke-opacity="1.000" stroke-linecap="round" stroke-linejoin="round" d="M 1079.578 809.953 L 1128.112 855.461 "></path>
    <path id="STROKE_9387fe0a-9085-4106-acfb-60f18285b347" opacity="1.000" fill="none" stroke="#32aee4" stroke-width="8.840" stroke-opacity="1.000" stroke-linecap="round" stroke-linejoin="round" d="M 1073.686 819.343 L 997.097 893.720 "></path>
    <path id="STROKE_6647b1dc-166c-4f12-882e-c2e28fbb4d6a" opacity="1.000" fill="none" stroke="#32aee4" stroke-width="8.840" stroke-opacity="1.000" stroke-linecap="round" stroke-linejoin="round" d="M 1037.864 815.660 L 975.640 879.196 "></path>
    <path id="STROKE_91e6b82c-aaf9-46fa-b568-4542443441d3" opacity="1.000" fill="none" stroke="#32aee4" stroke-width="8.840" stroke-opacity="1.000" stroke-linecap="round" stroke-linejoin="round" d="M 1071.244 780.978 L 1143.005 849.458 "></path>
    <path id="STROKE_65cc30df-b9a3-4ef8-9e61-3aa8dd4bd8ed" opacity="1.000" fill="none" stroke="#32aee4" stroke-width="8.840" stroke-opacity="1.000" stroke-linecap="round" stroke-linejoin="round" d="M 1045.640 826.854 L 989.821 882.529 "></path>
    <path id="STROKE_0b7616c9-5d79-4bd2-b9fe-98b23ee7f3ac" opacity="1.000" fill="none" stroke="#32aee4" stroke-width="10.030" stroke-opacity="1.000" stroke-linecap="round" stroke-linejoin="round" d="M 1149.328 852.003 Q 1149.345 852.003 1149.378 852.002 Q 1148.757 852.011 1148.979 852.008 Q 1148.210 852.027 1148.470 852.021 Q 1148.050 852.035 1148.060 852.035 Q 1148.106 852.076 1147.825 852.037 Q 1147.544 851.998 1145.707 852.191 Q 1143.869 852.384 1142.786 852.566 Q 1141.703 852.747 1141.110 852.883 Q 1140.518 853.018 1139.541 853.206 Q 1138.565 853.394 1136.510 854.055 Q 1134.456 854.717 1133.192 855.243 Q 1131.928 855.769 1131.197 856.112 Q 1130.466 856.456 1130.198 856.591 Q 1129.929 856.726 1129.745 856.819 Q 1129.561 856.912 1129.404 856.995 Q 1129.246 857.077 1129.115 857.147 Q 1128.984 857.216 1128.951 857.249 Q 1128.918 857.283 1128.928 857.250 Q 1128.937 857.218 1127.158 858.261 Q 1125.380 859.305 1124.034 860.306 Q 1122.688 861.307 1121.661 862.132 Q 1120.634 862.956 1119.049 864.431 Q 1117.465 865.906 1116.095 867.596 Q 1114.726 869.286 1114.097 870.155 Q 1113.469 871.025 1113.250 871.354 Q 1113.030 871.684 1112.289 872.840 Q 1111.548 873.996 1110.806 875.380 Q 1110.063 876.764 1109.483 878.081 Q 1108.903 879.398 1108.640 880.079 Q 1108.377 880.761 1108.282 881.023 Q 1108.188 881.284 1108.099 881.534 Q 1108.011 881.784 1107.951 881.958 Q 1107.891 882.133 1107.766 882.515 Q 1107.642 882.898 1107.586 883.077 Q 1107.531 883.257 1107.523 883.286 Q 1107.516 883.316 1107.512 883.320 Q 1107.508 883.323 1107.370 883.796 Q 1107.231 884.268 1107.147 884.579 Q 1107.064 884.889 1107.050 884.944 Q 1107.035 884.999 1107.046 884.956 Q 1107.057 884.914 1106.986 885.185 Q 1106.915 885.457 1106.849 885.731 Q 1106.782 886.005 1106.729 886.237 Q 1106.675 886.468 1106.685 886.426 Q 1106.694 886.384 1106.674 886.482 Q 1106.654 886.580 1106.676 886.458 Q 1106.698 886.336 1106.587 886.866 Q 1106.475 887.397 1106.407 887.746 Q 1106.338 888.095 1106.328 888.154 Q 1106.317 888.213 1106.307 888.288 Q 1106.297 888.363 1106.305 888.290 Q 1106.312 888.216 1106.208 888.818 Q 1106.104 889.419 1106.036 889.919 Q 1105.968 890.418 1105.932 890.698 Q 1105.896 890.977 1105.893 891.005 Q 1105.890 891.034 1105.892 891.017 Q 1105.894 891.001 1105.886 891.071 Q 1105.879 891.140 1105.879 891.134 Q 1105.879 891.129 1105.862 891.262 Q 1105.846 891.396 1105.815 891.708 Q 1105.784 892.021 1105.761 892.279 Q 1105.737 892.537 1105.740 892.503 Q 1105.744 892.468 1105.742 892.488 Q 1105.740 892.507 1105.721 892.751 Q 1105.701 892.995 1105.703 892.973 Q 1105.705 892.950 1105.706 892.933 Q 1105.659 893.603 1105.677 893.348 Q 1105.676 893.363 1105.665 893.531 "></path>
    <path id="STROKE_14a1baaa-bc75-4c60-b8c3-36108712bcb5" opacity="1.000" fill="none" stroke="#32aee4" stroke-width="7.420" stroke-opacity="1.000" stroke-linecap="round" stroke-linejoin="round" d="M 962.945 853.366 Q 962.928 853.366 962.895 853.365 Q 963.517 853.374 963.294 853.371 Q 964.063 853.390 963.804 853.383 Q 964.224 853.398 964.213 853.398 Q 964.168 853.439 964.448 853.400 Q 964.729 853.361 966.567 853.554 Q 968.404 853.747 969.487 853.928 Q 970.570 854.110 971.163 854.245 Q 971.756 854.381 972.732 854.569 Q 973.708 854.756 975.763 855.418 Q 977.818 856.080 979.081 856.606 Q 980.345 857.132 981.076 857.475 Q 981.807 857.818 982.076 857.953 Q 982.345 858.089 982.528 858.182 Q 982.712 858.275 982.870 858.357 Q 983.027 858.440 983.159 858.509 Q 983.290 858.579 983.322 858.612 Q 983.355 858.645 983.346 858.613 Q 983.336 858.581 985.115 859.624 Q 986.894 860.667 988.239 861.669 Q 989.585 862.670 990.612 863.495 Q 991.640 864.319 993.224 865.794 Q 994.809 867.269 996.178 868.959 Q 997.548 870.649 998.176 871.518 Q 998.805 872.387 999.024 872.717 Q 999.243 873.047 999.984 874.203 Q 1000.725 875.358 1001.468 876.743 Q 1002.210 878.127 1002.790 879.444 Q 1003.371 880.761 1003.634 881.442 Q 1003.897 882.124 1003.991 882.385 Q 1004.086 882.647 1004.174 882.897 Q 1004.262 883.147 1004.323 883.321 Q 1004.383 883.496 1004.507 883.878 Q 1004.631 884.261 1004.687 884.440 Q 1004.743 884.619 1004.750 884.649 Q 1004.758 884.679 1004.762 884.683 Q 1004.766 884.686 1004.904 885.159 Q 1005.042 885.631 1005.126 885.942 Q 1005.210 886.252 1005.224 886.307 Q 1005.238 886.361 1005.227 886.319 Q 1005.216 886.276 1005.287 886.548 Q 1005.359 886.820 1005.425 887.094 Q 1005.491 887.367 1005.544 887.599 Q 1005.598 887.831 1005.589 887.789 Q 1005.579 887.747 1005.599 887.845 Q 1005.619 887.943 1005.597 887.821 Q 1005.575 887.699 1005.687 888.229 Q 1005.798 888.759 1005.867 889.109 Q 1005.935 889.458 1005.946 889.517 Q 1005.956 889.576 1005.966 889.651 Q 1005.976 889.726 1005.969 889.653 Q 1005.961 889.579 1006.065 890.180 Q 1006.170 890.782 1006.238 891.281 Q 1006.306 891.781 1006.341 892.060 Q 1006.377 892.339 1006.380 892.368 Q 1006.383 892.397 1006.381 892.380 Q 1006.380 892.364 1006.387 892.433 Q 1006.395 892.503 1006.394 892.497 Q 1006.394 892.491 1006.411 892.625 Q 1006.428 892.758 1006.458 893.071 Q 1006.489 893.383 1006.513 893.642 Q 1006.536 893.900 1006.533 893.865 Q 1006.530 893.831 1006.531 893.850 Q 1006.533 893.870 1006.553 894.114 Q 1006.572 894.358 1006.571 894.335 Q 1006.569 894.313 1006.567 894.296 Q 1006.614 894.965 1006.596 894.711 Q 1006.597 894.726 1006.608 894.894 "></path>
    <path id="STROKE_6f1d047e-ff27-4495-a5c7-fdc75e63496a" opacity="1.000" fill="none" stroke="#32aee4" stroke-width="10.540" stroke-opacity="1.000" stroke-linecap="round" stroke-linejoin="round" d="M 988.493 891.889 L 1103.206 892.133 "></path>
  </g>
</svg>
